<svg width="30" height="30" viewBox="0 0 60 60" fill="none" xmlns="http://www.w3.org/2000/svg">
<g clip-path="url(#clip0_251_322)">
<path d="M9.89809 10.9247C11.2275 10.9247 11.2275 8.86125 9.89809 8.86125C8.56777 8.86125 8.56777 10.9247 9.89809 10.9247ZM11.1328 16.8319C12.4621 16.8319 12.4621 14.7684 11.1328 14.7684C9.8034 14.7684 9.80434 16.8319 11.1328 16.8319ZM21.3018 15.4556C22.6275 15.4556 22.6275 13.3978 21.3018 13.3978C19.9706 13.3978 19.9706 15.4556 21.3018 15.4556ZM30.5015 10.6472C31.8309 10.6472 31.8309 8.58937 30.5015 8.58937C29.1703 8.58937 29.1703 10.6472 30.5015 10.6472ZM48.6384 10.5122C49.9659 10.5122 49.9659 8.4525 48.6384 8.4525C47.3071 8.4525 47.3071 10.5122 48.6384 10.5122ZM39.2943 13.8084C40.6256 13.8084 40.6256 11.7469 39.2943 11.7469C37.965 11.7469 37.965 13.8084 39.2943 13.8084ZM23.5031 7.21406C24.8287 7.21406 24.8287 5.15625 23.5031 5.15625C22.1737 5.15625 22.1737 7.21406 23.5031 7.21406ZM17.3156 10.0997C18.645 10.0997 18.645 8.03625 17.3156 8.03625C15.9862 8.03625 15.9862 10.0997 17.3156 10.0997ZM16.6284 16.4194C17.9596 16.4194 17.9596 14.3559 16.6284 14.3559C15.299 14.3559 15.299 16.4194 16.6284 16.4194ZM9.6234 23.6981C10.9528 23.6981 10.9528 21.6384 9.6234 21.6384C8.29402 21.6384 8.29402 23.6981 9.6234 23.6981ZM29.954 16.0031C31.2853 16.0031 31.2853 13.9416 29.954 13.9416C28.6246 13.9416 28.6246 16.0031 29.954 16.0031ZM6.73684 42.1059C8.06621 42.1059 8.06621 40.0462 6.73684 40.0462C5.40934 40.0462 5.40934 42.1059 6.73684 42.1059ZM42.869 8.45625C44.1946 8.45625 44.1946 6.39469 42.869 6.39469C41.5396 6.39469 41.5396 8.45625 42.869 8.45625ZM53.5781 30.1594C54.9075 30.1594 54.9075 28.0978 53.5781 28.0978C52.2487 28.0978 52.2487 30.1594 53.5781 30.1594ZM48.225 41.7C49.5543 41.7 49.5543 39.6366 48.225 39.6366C46.8956 39.6366 46.8956 41.7 48.225 41.7ZM37.2337 47.4637C38.5631 47.4637 38.5631 45.4041 37.2337 45.4041C35.9043 45.4041 35.9043 47.4637 37.2337 47.4637ZM9.7584 47.0531C11.0887 47.0531 11.0887 44.9972 9.7584 44.9972C8.43277 44.9972 8.43277 47.0531 9.7584 47.0531ZM10.3087 50.6213C11.64 50.6213 11.64 48.5625 10.3087 48.5625C8.97934 48.5625 8.97934 50.6213 10.3087 50.6213ZM26.2462 47.8688C27.5765 47.8688 27.5765 45.81 26.2462 45.81C24.9168 45.81 24.9168 47.8688 26.2462 47.8688ZM30.914 53.3691C32.2434 53.3691 32.2434 51.3094 30.914 51.3094C29.5884 51.3094 29.5884 53.3691 30.914 53.3691ZM44.1 53.2359C45.4293 53.2359 45.4293 51.1725 44.1 51.1725C42.7706 51.1725 42.7706 53.2359 44.1 53.2359ZM43.0031 42.1059C44.3343 42.1059 44.3343 40.0462 43.0031 40.0462C41.6737 40.0462 41.6737 42.1059 43.0031 42.1059ZM52.0687 38.6719C53.3981 38.6719 53.3981 36.6122 52.0687 36.6122C50.7393 36.6122 50.7393 38.6719 52.0687 38.6719ZM16.7653 52.6875C18.0928 52.6875 18.0928 50.6241 16.7653 50.6241C15.4378 50.6241 15.4378 52.6875 16.7653 52.6875Z" fill="white"/>
<path d="M25.6059 15.8419C11.9268 20.1891 2.84338 30.0169 5.31276 37.7906C7.77932 45.5625 20.8724 48.3469 34.5534 43.9988C48.2315 39.6497 57.3196 29.8238 54.8474 22.0538C52.3781 14.2781 39.2896 11.4975 25.6059 15.8419ZM35.8509 42.0103C24.5634 45.5963 13.7596 43.3041 11.7187 36.8888C9.68338 30.4706 17.1796 22.3613 28.4709 18.7734C39.7584 15.1884 50.5621 17.4844 52.604 23.9025C54.6421 30.315 47.1421 38.4225 35.8509 42.0103Z" fill="#7000FF"/>
<path d="M35.6999 40.0463C45.5652 36.9103 52.1221 29.82 50.3427 24.2063C48.5605 18.5991 39.1124 16.5928 29.2443 19.7288C19.3752 22.8666 12.8174 29.9531 14.5996 35.5622C16.3846 41.1741 25.8243 43.1784 35.6999 40.0463ZM28.303 21.165C36.4499 18.5766 44.2405 20.2313 45.7152 24.8625C47.188 29.4938 41.7805 35.3438 33.6327 37.9322C25.4849 40.5169 17.6858 38.8641 16.2205 34.2338C14.7477 29.6034 20.1608 23.7534 28.303 21.165Z" fill="#7000FF"/>
<path d="M27.8962 23.0438C21.5493 25.0603 17.3296 29.625 18.4837 33.2269C19.6265 36.8334 25.7015 38.1272 32.0465 36.1088C38.3953 34.0922 42.6112 29.5275 41.459 25.9256C40.3143 22.3191 34.2403 21.03 27.8953 23.0438M32.6465 35.1881C27.4078 36.8484 22.3949 35.7844 21.4509 32.8069C20.504 29.8303 23.9859 26.07 29.2218 24.4041C34.4587 22.7381 39.4715 23.8069 40.4203 26.7834C41.3671 29.7609 37.8843 33.5213 32.6465 35.1881Z" fill="#7000FF"/>
<path d="M32.5077 33.825C36.6356 32.5144 39.3852 29.5453 38.6362 27.1969C37.889 24.8512 33.9393 24.0075 29.8068 25.3219C25.6752 26.6325 22.9293 29.6016 23.6727 31.95C24.4209 34.3012 28.379 35.1384 32.5077 33.8241M29.4112 25.9219C32.8218 24.8381 36.0862 25.53 36.7049 27.4716C37.3162 29.4084 35.0502 31.8562 31.6434 32.94C28.2318 34.0228 24.9693 33.3319 24.3534 31.3903C23.7365 29.4534 26.0034 27.0019 29.4112 25.9219Z" fill="#7000FF"/>
<path d="M32.5913 28.7766C32.3409 27.9891 31.0116 27.7079 29.625 28.1485C29.4934 28.1897 29.3639 28.2373 29.2369 28.291L29.2331 28.2947C29.031 28.3798 28.8352 28.4791 28.6472 28.5919L28.6434 28.5957C28.49 28.6922 28.3436 28.7997 28.2056 28.9172C28.0671 29.0369 27.9408 29.17 27.8288 29.3147V29.3185C27.5681 29.6701 27.4622 30.0394 27.5681 30.376C27.8184 31.1616 29.1469 31.4447 30.5334 31.0022C31.9181 30.5654 32.8397 29.5688 32.5913 28.7766Z" fill="white"/>
</g>
<defs>
<clipPath id="clip0_251_322">
<rect width="60" height="60" fill="white"/>
</clipPath>
</defs>
</svg>
